<svg width="952" height="489" viewBox="0 0 952 489" fill="none" xmlns="http://www.w3.org/2000/svg">
<path fill-rule="evenodd" clip-rule="evenodd" d="M16.5 171C25.6127 171 33 178.387 33 187.5V271.5C33 278.956 39.0442 285 46.5 285H135.5C144.613 285 152 292.387 152 301.5C152 310.613 144.613 318 135.5 318H46.5C20.8188 318 0 297.181 0 271.5V187.5C0 178.387 7.3873 171 16.5 171Z" fill="white"/>
<path opacity="0.05" fill-rule="evenodd" clip-rule="evenodd" d="M89 472.5C89 463.387 96.3873 456 105.5 456L285.5 456C294.613 456 302 463.387 302 472.5C302 481.613 294.613 489 285.5 489L105.5 489C96.3873 489 89 481.613 89 472.5Z" fill="white"/>
<path fill-rule="evenodd" clip-rule="evenodd" d="M194 301.5C194 292.387 201.387 285 210.5 285L390.5 285C399.613 285 407 292.387 407 301.5C407 310.613 399.613 318 390.5 318L210.5 318C201.387 318 194 310.613 194 301.5Z" fill="#1FB252"/>
<path fill-rule="evenodd" clip-rule="evenodd" d="M228 244.5C228 235.387 235.387 228 244.5 228L424.5 228C433.613 228 441 235.387 441 244.5C441 253.613 433.613 261 424.5 261L244.5 261C235.387 261 228 253.613 228 244.5Z" fill="#1FB252"/>
<path fill-rule="evenodd" clip-rule="evenodd" d="M264 187.5C264 178.387 271.387 171 280.5 171L460.5 171C469.613 171 477 178.387 477 187.5C477 196.613 469.613 204 460.5 204L280.5 204C271.387 204 264 196.613 264 187.5Z" fill="#1FB252"/>
<path opacity="0.05" fill-rule="evenodd" clip-rule="evenodd" d="M370 16.5C370 7.3873 377.387 6.45818e-07 386.5 1.44248e-06L566.5 1.71786e-05C575.613 1.79752e-05 583 7.38732 583 16.5C583 25.6127 575.613 33 566.5 33L386.5 33C377.387 33 370 25.6127 370 16.5Z" fill="white"/>
<path fill-rule="evenodd" clip-rule="evenodd" d="M530.5 171C539.613 171 547 178.387 547 187.5V301.5C547 310.613 539.613 318 530.5 318C521.387 318 514 310.613 514 301.5V187.5C514 178.387 521.387 171 530.5 171Z" fill="white"/>
<path fill-rule="evenodd" clip-rule="evenodd" d="M795 212.5C795 189.58 813.58 171 836.5 171H935.5C944.613 171 952 178.387 952 187.5C952 196.613 944.613 204 935.5 204H836.5C831.806 204 828 207.806 828 212.5V228H935.5C944.613 228 952 235.387 952 244.5C952 253.613 944.613 261 935.5 261H828V276.5C828 281.194 831.806 285 836.5 285H935.5C944.613 285 952 292.387 952 301.5C952 310.613 944.613 318 935.5 318H836.5C813.58 318 795 299.42 795 276.5V212.5Z" fill="white"/>
<path fill-rule="evenodd" clip-rule="evenodd" d="M720.835 178.394C734.174 164.203 758 173.643 758 193.119V301.5C758 310.613 750.613 318 741.5 318C732.387 318 725 310.613 725 301.5V222.144L690.309 259.05C679.843 270.183 662.157 270.183 651.691 259.05L617 222.144V301.5C617 310.613 609.613 318 600.5 318C591.387 318 584 310.613 584 301.5V193.119C584 173.643 607.826 164.203 621.165 178.394L671 231.409L720.835 178.394Z" fill="white"/>
</svg>
